<svg xmlns="http://www.w3.org/2000/svg" viewBox="0 0 1000 458" width="1000" height="458" role="img" aria-label="Relay: LLM Dashboard">
  <!-- Generated by tools/make_header.py - edit that, not this. -->
  <rect x="0.5" y="0.5" width="999" height="457" rx="24" fill="#0B0E14" stroke="#1D2430" />
  
  <g transform="translate(436.0,52.0) scale(0.500000)">
    <!-- The Relay mark. The R's stem is the proxy: a request going one way and
       tokens coming back the other. The two colours are the dashboard's own —
       cyan is tokens in, amber is tokens out — so the mark and the charts agree.
       Edit here only. tools/make_header.py copies these paths into
       assets/header.svg, and App.tsx inlines the same geometry for the sidebar. -->
  <rect x="2" y="2" width="252" height="252" rx="56" fill="#11151D" stroke="#2A3547" stroke-width="4"/>
  <g transform="translate(-6,0)" fill="none" stroke-width="15" stroke-linecap="round" stroke-linejoin="round">
    <path d="M118 66h36a30 30 0 0 1 0 60h-36" stroke="#E6EAF2"/>
    <path d="M132 126l44 64" stroke="#E6EAF2"/>
    <g stroke="#58C4DD"><path d="M94 190V66"/><path d="M83 77l11-11 11 11"/></g>
    <g stroke="#FFB224"><path d="M118 66v124"/><path d="M107 179l11 11 11-11"/></g>
  </g>
  </g>
  <text x="500" y="250" text-anchor="middle" font-family="ui-sans-serif,-apple-system,BlinkMacSystemFont,'Segoe UI',Roboto,Helvetica,Arial,sans-serif" font-size="62" font-weight="700" letter-spacing="-1" fill="#E6EAF2">Relay<tspan fill="#8A94A6" font-weight="400">: LLM Dashboard</tspan></text>
  <text x="500" y="288" text-anchor="middle" font-family="ui-sans-serif,-apple-system,BlinkMacSystemFont,'Segoe UI',Roboto,Helvetica,Arial,sans-serif" font-size="18" fill="#8A94A6">One OpenAI-compatible /v1 in front of local model servers and agent servers,</text>
  <text x="500" y="315" text-anchor="middle" font-family="ui-sans-serif,-apple-system,BlinkMacSystemFont,'Segoe UI',Roboto,Helvetica,Arial,sans-serif" font-size="18" fill="#8A94A6">and a record of what every request through it cost in latency and tokens.</text>
  <rect x="337.3" y="356" width="93.4" height="32" rx="16" fill="#11151D" stroke="#2A3547" />
  <circle cx="356.3" cy="372.0" r="4" fill="#3572a5" />
  <text x="365.3" y="377.0" font-family="ui-monospace,SFMono-Regular,Menlo,Consolas,'DejaVu Sans Mono',monospace" font-size="14" fill="#C3CAD8">Python</text>
  <rect x="440.7" y="356" width="127.0" height="32" rx="16" fill="#11151D" stroke="#2A3547" />
  <circle cx="459.7" cy="372.0" r="4" fill="#3178c6" />
  <text x="468.7" y="377.0" font-family="ui-monospace,SFMono-Regular,Menlo,Consolas,'DejaVu Sans Mono',monospace" font-size="14" fill="#C3CAD8">TypeScript</text>
  <rect x="577.7" y="356" width="85.0" height="32" rx="16" fill="#11151D" stroke="#2A3547" />
  <circle cx="596.7" cy="372.0" r="4" fill="#89e051" />
  <text x="605.7" y="377.0" font-family="ui-monospace,SFMono-Regular,Menlo,Consolas,'DejaVu Sans Mono',monospace" font-size="14" fill="#C3CAD8">Shell</text>
  <rect x="250.6" y="402" width="88.8" height="32" rx="16" fill="#11151D" stroke="#2A3547" />
  <text x="265.6" y="423.0" font-family="ui-monospace,SFMono-Regular,Menlo,Consolas,'DejaVu Sans Mono',monospace" font-size="14" fill="#C3CAD8">FastAPI</text>
  <rect x="349.4" y="402" width="72.0" height="32" rx="16" fill="#11151D" stroke="#2A3547" />
  <text x="364.4" y="423.0" font-family="ui-monospace,SFMono-Regular,Menlo,Consolas,'DejaVu Sans Mono',monospace" font-size="14" fill="#C3CAD8">Astro</text>
  <rect x="431.4" y="402" width="72.0" height="32" rx="16" fill="#11151D" stroke="#2A3547" />
  <text x="446.4" y="423.0" font-family="ui-monospace,SFMono-Regular,Menlo,Consolas,'DejaVu Sans Mono',monospace" font-size="14" fill="#C3CAD8">React</text>
  <rect x="513.4" y="402" width="88.8" height="32" rx="16" fill="#11151D" stroke="#2A3547" />
  <text x="528.4" y="423.0" font-family="ui-monospace,SFMono-Regular,Menlo,Consolas,'DejaVu Sans Mono',monospace" font-size="14" fill="#C3CAD8">ECharts</text>
  <rect x="612.2" y="402" width="80.4" height="32" rx="16" fill="#11151D" stroke="#2A3547" />
  <text x="627.2" y="423.0" font-family="ui-monospace,SFMono-Regular,Menlo,Consolas,'DejaVu Sans Mono',monospace" font-size="14" fill="#C3CAD8">SQLite</text>
  <rect x="702.6" y="402" width="46.8" height="32" rx="16" fill="#11151D" stroke="#2A3547" />
  <text x="717.6" y="423.0" font-family="ui-monospace,SFMono-Regular,Menlo,Consolas,'DejaVu Sans Mono',monospace" font-size="14" fill="#C3CAD8">uv</text>
</svg>
